Coordinates
version=1
nRows=8
nColumns=60
inDegrees=yes

Units are S.I. units (second, meters, Newtons, ...)
If the header above contains a line with 'inDegrees', this indicates whether rotational values are in degrees (yes) or radians (no).

endheader
time	pelvis_tilt	pelvis_list	pelvis_rotation	pelvis_tx	pelvis_ty	pelvis_tz	hip_flexion_r	hip_adduction_r	hip_rotation_r	knee_angle_r_beta	knee_angle_r	ankle_angle_r	subtalar_angle_r	mtp_angle_r	hip_flexion_l	hip_adduction_l	hip_rotation_l	knee_angle_l_beta	knee_angle_l	ankle_angle_l	subtalar_angle_l	mtp_angle_l	L5_S1_Flex_Ext	L5_S1_Lat_Bending	L5_S1_axial_rotation	L4_L5_Flex_Ext	L4_L5_Lat_Bending	L4_L5_axial_rotation	L3_L4_Flex_Ext	L3_L4_Lat_Bending	L3_L4_axial_rotation	L2_L3_Flex_Ext	L2_L3_Lat_Bending	L2_L3_axial_rotation	L1_L2_Flex_Ext	L1_L2_Lat_Bending	L1_L2_axial_rotation	L1_T12_Flex_Ext	L1_T12_Lat_Bending	L1_T12_axial_rotation	Abs_r3	Abs_r2	Abs_r1	Abs_t1	Abs_t2	arm_flex_r	arm_add_r	arm_rot_r	elbow_flex_r	pro_sup_r	wrist_flex_r	wrist_dev_r	arm_flex_l	arm_add_l	arm_rot_l	elbow_flex_l	pro_sup_l	wrist_flex_l	wrist_dev_l
      8.25000000	      0.99900493	     -1.68252843	     93.87741080	      0.40520387	      0.92674663	      0.31483918	     16.00869884	     -4.12551054	      1.65653627	      0.32959204	    -18.88423259	      6.30937182	      0.00000000	      0.00000000	     16.40297090	     -5.88809668	      3.75665075	      0.27980116	    -16.03142548	      5.30074230	      0.00000000	      0.00000000	     -7.05474501	      0.27922626	     -0.53069658	    -13.10136696	      0.37137093	     -0.56386511	    -11.59024058	      0.67891073	     -0.56386511	     -8.06286807	      0.67891073	     -0.46435951	     -6.55103622	      0.56939819	     -0.43119097	     -4.03108130	      0.43252148	     -0.39802243	    -50.39133814	      3.15866331	     -2.95157516	      0.00000000	      0.00000000	     90.82142228	    -14.09746409	     24.30613195	     46.42694668	     64.27590343	    -18.26806344	     66.78796062	     94.74907315	    -17.31543986	     34.01358568	     41.47180010	     53.67336835	    -14.48870947	     62.14404337
      8.26000000	      1.00942305	     -1.77066361	     93.91920462	      0.40543616	      0.92642108	      0.31688318	     16.22051833	     -4.11390509	      1.63453382	      0.32857622	    -18.82603045	      6.30253381	      0.00000000	      0.00000000	     16.61070255	     -5.89976210	      3.74770890	      0.27842734	    -15.95271137	      5.27678068	      0.00000000	      0.00000000	     -7.07301807	      0.27694966	     -0.53479981	    -13.13530186	      0.36834305	     -0.56822480	    -11.62026139	      0.67337540	     -0.56822480	     -8.08375235	      0.67337540	     -0.46794984	     -6.56800458	      0.56475574	     -0.43452485	     -4.04152253	      0.42899502	     -0.40109986	    -50.52186079	      3.13290993	     -2.97439613	      0.00000000	      0.00000000	     91.18035774	    -14.07224228	     24.25766865	     46.38132263	     64.31194634	    -18.22624101	     66.75431692	     95.09868603	    -17.30497568	     33.97774054	     41.47717270	     53.72033468	    -14.49745008	     62.13961960
      8.27000000	      1.00840565	     -1.89591528	     93.96835938	      0.40567001	      0.92599507	      0.31918132	     16.54682064	     -4.12359559	      1.67150543	      0.32961570	    -18.88558852	      6.07706744	      0.00000000	      0.00000000	     16.86172258	     -5.88536840	      3.91397952	      0.27636119	    -15.83432962	      4.85300915	      0.00000000	      0.00000000	     -7.07387408	      0.26819295	     -0.55574247	    -13.13689155	      0.35669662	     -0.59047637	    -11.62166772	      0.65208433	     -0.59047637	     -8.08473068	      0.65208433	     -0.48627466	     -6.56879947	      0.54689906	     -0.45154075	     -4.04201165	      0.41543088	     -0.41680685	    -50.52797516	      3.03385227	     -3.09087287	      0.00000000	      0.00000000	     91.76209311	    -13.72865683	     24.18011729	     45.50215118	     64.26682770	    -17.82746561	     66.78260158	     95.59534122	    -17.21072344	     34.01297007	     41.12115898	     53.84178253	    -14.43603048	     62.53446300
      8.28000000	      1.01202779	     -1.95591925	     94.00368120	      0.40588298	      0.92575979	      0.32117434	     16.72848881	     -4.11906793	      1.65094538	      0.32877088	    -18.83718410	      6.05246407	      0.00000000	      0.00000000	     17.02316003	     -5.88514740	      3.89518228	      0.27471593	    -15.74006363	      4.79752586	      0.00000000	      0.00000000	     -7.08299599	      0.26552567	     -0.56173525	    -13.15383185	      0.35314915	     -0.59684370	    -11.63665411	      0.64559912	     -0.59684370	     -8.09515612	      0.64559912	     -0.49151834	     -6.57727008	      0.54145996	     -0.45640989	     -4.04722391	      0.41129927	     -0.42130144	    -50.59313206	      3.00367953	     -3.12420293	      0.00000000	      0.00000000	     92.05760346	    -13.66409934	     24.12617699	     45.39723137	     64.28969264	    -17.77642473	     66.68710945	     95.89279606	    -17.21006759	     33.98417086	     41.10009019	     53.90526288	    -14.42386215	     62.51139536
      8.29000000	      0.96924096	     -2.03973891	     94.02158801	      0.40611609	      0.92554937	      0.32324682	     16.97851432	     -4.16510603	      1.69526077	      0.32921096	    -18.86239834	      5.71493953	      0.00000000	      0.00000000	     17.12682194	     -5.84718535	      3.98988219	      0.26984803	    -15.46115320	      4.21335756	      0.00000000	      0.00000000	     -7.06752205	      0.25075559	     -0.60233630	    -13.12509520	      0.33350494	     -0.63998232	    -11.61123198	      0.60968715	     -0.63998232	     -8.07747095	      0.60968715	     -0.52704426	     -6.56290098	      0.51134080	     -0.48939825	     -4.03838210	      0.38842041	     -0.45175223	    -50.48260326	      2.83659740	     -3.35001381	      0.00000000	      0.00000000	     92.55482113	    -13.06547646	     24.04922055	     44.11223186	     64.27647800	    -17.27780927	     66.28378915	     96.20926913	    -17.19859417	     34.02898993	     40.62919697	     54.01291813	    -14.27370437	     62.60445450
      8.30000000	      0.98323277	     -2.05876399	     94.04708734	      0.40628214	      0.92546054	      0.32506664	     17.09634448	     -4.15178582	      1.67564705	      0.32835492	    -18.81335119	      5.70561289	      0.00000000	      0.00000000	     17.23089461	     -5.86333844	      3.95694687	      0.26862216	    -15.39091581	      4.20787961	      0.00000000	      0.00000000	     -7.07054557	      0.25006644	     -0.60607095	    -13.13071018	      0.33258836	     -0.64395039	    -11.61619932	      0.60801153	     -0.64395039	     -8.08092653	      0.60801153	     -0.53031209	     -6.56570862	      0.50993547	     -0.49243265	     -4.04010974	      0.38735291	     -0.45455322	    -50.50419995	      2.82880153	     -3.37078483	      0.00000000	      0.00000000	     92.74564868	    -13.03846102	     24.02139449	     44.08786133	     64.28501825	    -17.27076216	     66.24145587	     96.41615810	    -17.20869099	     34.02765167	     40.62837900	     54.03524163	    -14.26553589	     62.59303955
      8.31000000	      1.02837291	     -2.15299042	     94.04804211	      0.40651813	      0.92529767	      0.32688421	     17.28298354	     -4.10697462	      1.67584534	      0.32641112	    -18.70197953	      5.37486684	      0.00000000	      0.00000000	     17.32308502	     -5.92644144	      3.93360460	      0.26362396	    -15.10454012	      3.91712675	      0.00000000	      0.00000000	     -7.04590289	      0.24795771	     -0.61979660	    -13.08494626	      0.32978375	     -0.65853389	    -11.57571386	      0.60288437	     -0.65853389	     -8.05276242	      0.60288437	     -0.54232203	     -6.54282543	      0.50563536	     -0.50358474	     -4.02602891	      0.38408649	     -0.46484745	    -50.32817978	      2.80494717	     -3.44712276	      0.00000000	      0.00000000	     93.05545955	    -12.74425516	     24.10777309	     43.39967460	     64.13917113	    -17.08390731	     66.22314202	     96.72914323	    -17.21771305	     34.32647357	     40.22499568	     53.84610765	    -14.12795001	     62.77352845
      8.32000000	      1.03999698	     -2.14722062	     94.06688562	      0.40659025	      0.92536061	      0.32855886	     17.35929073	     -4.10550736	      1.66813988	      0.32561091	    -18.65613110	      5.33232107	      0.00000000	      0.00000000	     17.38494325	     -5.93217649	      3.90723394	      0.26243080	    -15.03617704	      3.89157460	      0.00000000	      0.00000000	     -7.04220536	      0.24878658	     -0.62300437	    -13.07807957	      0.33088616	     -0.66194214	    -11.56963919	      0.60489970	     -0.66194214	     -8.04853651	      0.60489970	     -0.54512882	     -6.53939190	      0.50732560	     -0.50619105	     -4.02391614	      0.38537042	     -0.46725328	    -50.30176866	      2.81432359	     -3.46496340	      0.00000000	      0.00000000	     93.19732097	    -12.71359811	     24.11891157	     43.33631478	     64.12362841	    -17.07180455	     66.16108964	     96.87678998	    -17.22650009	     34.37466078	     40.18528806	     53.80803885	    -14.11348226	     62.72463422
